<?xml version="1.0" encoding="UTF-8"?>
<!DOCTYPE svg PUBLIC "-//W3C//DTD SVG 1.1//EN" "http://www.w3.org/Graphics/SVG/1.1/DTD/svg11.dtd">
<svg xmlns="http://www.w3.org/2000/svg" version="1.1" width="150px" height="150px" style="shape-rendering:geometricPrecision; text-rendering:geometricPrecision; image-rendering:optimizeQuality; fill-rule:evenodd; clip-rule:evenodd" xmlns:xlink="http://www.w3.org/1999/xlink">
<g><path style="opacity:0.208" fill="#fd0000" d="M 61.5,-0.5 C 69.8333,-0.5 78.1667,-0.5 86.5,-0.5C 93.9558,2.22297 101.289,5.5563 108.5,9.5C 111.299,11.4316 112.799,14.0983 113,17.5C 113.471,15.7536 114.138,14.087 115,12.5C 127.95,23.8175 134.45,37.4842 134.5,53.5C 134.833,54.1667 135.167,54.8333 135.5,55.5C 132.001,55.259 131.668,56.0924 134.5,58C 132.774,84.3945 119.94,103.228 96,114.5C 95.6667,114.167 95.3333,113.833 95,113.5C 93.6631,115.004 91.9964,116.004 90,116.5C 89.6667,116.167 89.3333,115.833 89,115.5C 86.0492,117.076 82.8826,117.743 79.5,117.5C 78.5084,117.328 77.8417,117.662 77.5,118.5C 72.482,118.387 67.482,118.053 62.5,117.5C 62.8651,112.579 61.8651,112.245 59.5,116.5C 30.0147,107.748 14.6813,88.4146 13.5,58.5C 13.8879,53.4597 13.8879,48.6264 13.5,44C 14.1258,43.2496 14.6258,42.4162 15,41.5C 15.3333,41.8333 15.6667,42.1667 16,42.5C 16.3333,40.1667 16.6667,37.8333 17,35.5C 19.4133,32.9382 21.08,29.9382 22,26.5C 31.7166,13.416 44.8833,4.41598 61.5,-0.5 Z M 61.5,20.5 C 64.2377,20.3374 66.9043,20.8374 69.5,22C 68.2889,23.1131 68.2889,24.2798 69.5,25.5C 67.6385,26.5283 66.3052,28.0283 65.5,30C 59.9109,30.5516 54.4109,31.3849 49,32.5C 48.2195,31.0563 48.3861,29.723 49.5,28.5C 52.1188,27.3764 54.2854,25.7098 56,23.5C 56.414,23.9574 56.914,24.2907 57.5,24.5C 58.5487,22.7844 59.882,21.4511 61.5,20.5 Z M 84.5,24.5 C 88.065,25.956 91.3983,27.956 94.5,30.5C 93.5197,31.9814 92.353,33.3147 91,34.5C 89.5,30.3333 86.6667,27.5 82.5,26C 83.4158,25.7216 84.0825,25.2216 84.5,24.5 Z M 69.5,33.5 C 74.0556,33.463 77.3889,35.463 79.5,39.5C 74.5154,42.2574 69.8487,41.7574 65.5,38C 67.0414,36.6288 68.3747,35.1288 69.5,33.5 Z M 47.5,37.5 C 50.4697,39.9682 53.3031,42.6348 56,45.5C 61.947,45.0194 67.7803,46.0194 73.5,48.5C 75.2141,47.3915 75.8808,48.0582 75.5,50.5C 68.7941,49.6562 62.1274,48.4896 55.5,47C 51.4478,43.8137 46.7811,42.1471 41.5,42C 40.1667,41.3333 40.1667,40.6667 41.5,40C 43.7226,39.4338 45.7226,38.6005 47.5,37.5 Z M 112.5,38.5 C 113.793,40.3635 113.793,42.3635 112.5,44.5C 111.019,45.4803 109.685,46.647 108.5,48C 109.448,48.4828 110.448,48.6495 111.5,48.5C 111.334,54.5092 111.501,60.5092 112,66.5C 113.366,68.3703 114.533,70.3703 115.5,72.5C 110.794,76.9036 106.461,80.9036 102.5,84.5C 101.571,85.6888 101.238,87.0222 101.5,88.5C 98.2064,87.9466 96.5397,88.9466 96.5,91.5C 95.914,91.2907 95.414,90.9574 95,90.5C 89.3333,95.5 83.6667,100.5 78,105.5C 76.9628,101.922 76.4628,98.2556 76.5,94.5C 77.0459,84.42 78.2126,74.42 80,64.5C 83,60.8333 86,57.1667 89,53.5C 89.1787,48.3306 91.3454,44.3306 95.5,41.5C 97.2733,44.0599 99.2733,46.3932 101.5,48.5C 104.061,46.9064 106.228,44.9064 108,42.5C 111.319,43.6441 112.819,42.3107 112.5,38.5 Z M 28.5,41.5 C 41.4634,48.1035 54.4634,54.7702 67.5,61.5C 68.6639,67.8072 68.8306,74.1405 68,80.5C 64.5829,78.2932 61.5829,75.6266 59,72.5C 58.2073,78.8849 58.374,85.2182 59.5,91.5C 59.1924,92.3081 58.6924,92.9747 58,93.5C 48.2529,89.0988 41.4196,81.7654 37.5,71.5C 36.7964,68.2959 36.1298,65.1292 35.5,62C 38.0959,60.2028 37.7626,58.8695 34.5,58C 37.4368,58.6232 40.4368,58.9565 43.5,59C 38.5734,54.9516 33.7401,50.7849 29,46.5C 28.5065,44.8659 28.3398,43.1992 28.5,41.5 Z M 61.5,82.5 C 62.6517,87.9846 62.8184,93.6513 62,99.5C 60.7223,94.0252 60.5556,88.3585 61.5,82.5 Z"/></g>
<g><path style="opacity:0.004" fill="#fd0000" d="M 134.5,53.5 C 134.897,52.475 135.563,52.3083 136.5,53C 135.906,53.4643 135.239,53.631 134.5,53.5 Z"/></g>
<g><path style="opacity:0.004" fill="#fd0000" d="M 135.5,55.5 C 136.833,56.1667 136.833,56.1667 135.5,55.5 Z"/></g>
<g><path style="opacity:0.004" fill="#fd0000" d="M 45.5,61.5 C 46.7562,61.4614 47.7562,61.9614 48.5,63C 47.0024,63.5847 46.0024,63.0847 45.5,61.5 Z"/></g>
<g><path style="opacity:0.665" fill="#000000" d="M 79.5,117.5 C 79.8297,123.868 79.4963,130.202 78.5,136.5C 77.5041,130.537 77.1707,124.537 77.5,118.5C 77.8417,117.662 78.5084,117.328 79.5,117.5 Z"/></g>
<g><path style="opacity:0.608" fill="#000000" d="M -0.5,131.5 C -0.5,129.167 -0.5,126.833 -0.5,124.5C 2.74733,118.714 7.414,117.214 13.5,120C 14.7112,120.893 14.7112,121.726 13.5,122.5C 7.25093,119.417 3.25093,121.25 1.5,128C 3.57081,134.624 7.57081,136.124 13.5,132.5C 15.9458,133.983 15.6124,135.149 12.5,136C 6.92269,137.621 2.58936,136.121 -0.5,131.5 Z"/></g>
<g><path style="opacity:0.494" fill="#000000" d="M 83.5,118.5 C 86.5476,118.494 87.0476,119.494 85,121.5C 83.9614,120.756 83.4614,119.756 83.5,118.5 Z"/></g>
<g><path style="opacity:0.667" fill="#eb1b21" d="M 106.5,118.5 C 109.545,118.508 112.545,118.841 115.5,119.5C 115.719,120.675 115.386,121.675 114.5,122.5C 110.764,119.393 107.764,119.893 105.5,124C 108.644,125.76 111.811,127.594 115,129.5C 115.896,132.025 115.396,134.192 113.5,136C 110.036,136.817 106.702,136.483 103.5,135C 102.289,134.107 102.289,133.274 103.5,132.5C 106.289,134.298 109.289,134.798 112.5,134C 113.833,132.667 113.833,131.333 112.5,130C 109.568,128.855 106.568,128.022 103.5,127.5C 102.925,123.845 103.925,120.845 106.5,118.5 Z"/></g>
<g><path style="opacity:0.916" fill="#f0171e" d="M 118.5,118.5 C 119.675,118.281 120.675,118.614 121.5,119.5C 119.948,120.798 118.948,120.465 118.5,118.5 Z"/></g>
<g><path style="opacity:0.613" fill="#000000" d="M 20.5,122.5 C 26.3231,122.82 29.1565,125.82 29,131.5C 27.2871,136.038 24.1205,137.538 19.5,136C 14.0879,131.187 14.4212,126.687 20.5,122.5 Z M 19.5,125.5 C 26.4715,125.279 28.1382,128.113 24.5,134C 17.8362,134.176 16.1696,131.343 19.5,125.5 Z"/></g>
<g><path style="opacity:0.619" fill="#000000" d="M 31.5,122.5 C 32.7498,122.577 33.5831,123.244 34,124.5C 39.9861,121.505 43.8195,123.339 45.5,130C 43.5069,136.568 39.6736,138.068 34,134.5C 33.8142,136.9 33.3142,139.234 32.5,141.5C 31.5037,135.202 31.1703,128.868 31.5,122.5 Z M 35.5,125.5 C 42.6758,124.985 44.3425,127.818 40.5,134C 33.8362,134.176 32.1696,131.343 35.5,125.5 Z"/></g>
<g><path style="opacity:0.608" fill="#000000" d="M 47.5,122.5 C 48.7498,122.577 49.5831,123.244 50,124.5C 56.0295,121.517 59.8629,123.35 61.5,130C 59.5069,136.568 55.6736,138.068 50,134.5C 49.8142,136.9 49.3142,139.234 48.5,141.5C 47.5037,135.202 47.1703,128.868 47.5,122.5 Z M 51.5,125.5 C 58.6758,124.985 60.3425,127.818 56.5,134C 49.8362,134.176 48.1696,131.343 51.5,125.5 Z"/></g>
<g><path style="opacity:0.596" fill="#000000" d="M 67.5,122.5 C 72.5,122.833 75.1667,125.5 75.5,130.5C 71.774,130.177 68.1073,130.511 64.5,131.5C 67.0767,135.079 70.0767,135.412 73.5,132.5C 74.7388,134.007 74.4054,135.174 72.5,136C 64.6667,137.5 61.5,134.333 63,126.5C 64.2499,124.807 65.7499,123.473 67.5,122.5 Z M 65.5,125.5 C 67.5273,125.338 69.5273,125.505 71.5,126C 71.9574,126.414 72.2907,126.914 72.5,127.5C 69.8333,128.833 67.1667,128.833 64.5,127.5C 64.8627,126.817 65.1961,126.15 65.5,125.5 Z"/></g>
<g><path style="opacity:0.442" fill="#000000" d="M 83.5,122.5 C 84.4959,122.414 85.3292,122.748 86,123.5C 86.499,127.821 86.6657,132.154 86.5,136.5C 85.5,136.5 84.5,136.5 83.5,136.5C 83.5,131.833 83.5,127.167 83.5,122.5 Z"/></g>
<g><path style="opacity:0.628" fill="#000000" d="M 92.5,122.5 C 95.368,122.085 97.5347,123.085 99,125.5C 99.8253,129.211 99.6586,132.878 98.5,136.5C 95.9982,136.379 93.3315,136.212 90.5,136C 87.8333,133.667 87.8333,131.333 90.5,129C 92.9005,128.814 95.2338,128.314 97.5,127.5C 95.5497,125.247 93.2163,124.914 90.5,126.5C 90.1667,126.167 89.8333,125.833 89.5,125.5C 90.3398,124.265 91.3398,123.265 92.5,122.5 Z M 91.5,130.5 C 93.5,130.5 95.5,130.5 97.5,130.5C 96.9245,134.473 94.7579,135.473 91,133.5C 90.5304,132.423 90.6971,131.423 91.5,130.5 Z"/></g>
<g><path style="opacity:0.731" fill="#ec1c23" d="M 118.5,122.5 C 119.805,124.397 120.471,126.731 120.5,129.5C 120.167,131.833 119.833,134.167 119.5,136.5C 118.507,131.88 118.173,127.214 118.5,122.5 Z"/></g>
<g><path style="opacity:0.68" fill="#ee1b22" d="M 124.5,122.5 C 125.75,122.577 126.583,123.244 127,124.5C 130.271,121.803 133.271,122.136 136,125.5C 138.448,122.455 141.281,121.955 144.5,124C 145.798,128.118 145.798,132.285 144.5,136.5C 143.511,132.893 143.177,129.226 143.5,125.5C 141.208,125.244 139.041,125.577 137,126.5C 136,139.833 135,139.833 134,126.5C 131.408,125.018 129.075,125.352 127,127.5C 126.821,130.553 126.321,133.553 125.5,136.5C 124.507,131.88 124.173,127.214 124.5,122.5 Z"/></g>
</svg>
